<?xml version="1.0" encoding="UTF-8"?><svg width="48px" height="48px" stroke-width="1.5" viewBox="0 0 24 24" xmlns="http://www.w3.org/2000/svg" color="#000000">
  <g>
    <path d="M6.9735,7.1189v3.126h1.7637c.1406,0,.2485,.0342,.3237,.1025s.1128,.1543,.1128,.2578c0,.1055-.0371,.1909-.1113,.2563s-.1826,.0981-.3252,.0981h-2.1006c-.1895,0-.3257-.042-.4087-.126s-.1245-.2197-.1245-.4072v-3.3076c0-.1758,.0396-.3076,.1187-.3955s.1831-.1318,.312-.1318c.1309,0,.2368,.0435,.3179,.1304s.1216,.2192,.1216,.397Z"/>
    <path d="M9.5462,10.5027v-3.3838c0-.1758,.04-.3076,.1201-.3955s.1836-.1318,.3105-.1318c.1309,0,.2368,.0435,.3179,.1304s.1216,.2192,.1216,.397v3.3838c0,.1777-.0405,.3105-.1216,.3984s-.187,.1318-.3179,.1318c-.125,0-.228-.0444-.3091-.1333s-.1216-.2212-.1216-.397Z"/>
    <path d="M11.7909,7.1628l.9727,2.8799,.9756-2.9004c.0508-.1523,.0889-.2583,.1143-.3179s.0674-.1133,.126-.1611,.1387-.0718,.2402-.0718c.0742,0,.1431,.0186,.2065,.0557s.1133,.0864,.1494,.1479,.0542,.1235,.0542,.186c0,.043-.0059,.0894-.0176,.1392s-.0264,.0986-.0439,.1465-.0352,.0972-.0527,.1479l-1.04,2.8066c-.0371,.1074-.0742,.2095-.1113,.3062s-.0801,.1816-.1289,.2549-.1138,.1333-.1948,.1802-.1802,.0703-.2974,.0703-.2163-.0229-.2974-.0688-.1465-.1064-.1963-.1816-.0933-.1606-.1304-.2563-.0742-.1973-.1113-.3047l-1.0225-2.7832c-.0176-.0508-.0356-.1006-.0542-.1494s-.0342-.1016-.0469-.1582-.019-.1045-.019-.1436c0-.0996,.04-.1904,.1201-.2725s.1807-.123,.3018-.123c.1484,0,.2534,.0454,.3149,.1362s.1245,.2358,.189,.4351Z"/>
    <path d="M17.8787,7.3357h-1.96v1.0547h1.8047c.1328,0,.2319,.0298,.2974,.0894s.0981,.1382,.0981,.2358-.0322,.1772-.0967,.2388-.1641,.0923-.2988,.0923h-1.8047v1.2217h2.0273c.1367,0,.2397,.0317,.3091,.0952s.104,.1479,.104,.2534c0,.1016-.0347,.1841-.104,.2476s-.1724,.0952-.3091,.0952h-2.3643c-.1895,0-.3257-.042-.4087-.126s-.1245-.2197-.1245-.4072v-3.2285c0-.125,.0186-.2271,.0557-.3062s.0952-.1367,.1743-.1729,.1802-.0542,.3032-.0542h2.2969c.1387,0,.2417,.0308,.3091,.0923s.1011,.1421,.1011,.2417c0,.1016-.0337,.1831-.1011,.2446s-.1704,.0923-.3091,.0923Z"/>
    <path d="M4.3792,12.6648h1.1338c.2949,0,.5479,.0273,.7588,.082s.4023,.1572,.5742,.3076c.4473,.3828,.6709,.9648,.6709,1.7461,0,.2578-.0225,.4932-.0674,.7061s-.1143,.4043-.208,.5752-.2139,.3242-.3604,.459c-.1152,.1035-.2412,.1865-.3779,.249s-.2837,.1064-.4409,.1318-.3345,.0381-.5317,.0381h-1.1338c-.1582,0-.2773-.0244-.3574-.0723s-.1323-.1152-.1567-.2021-.0366-.1992-.0366-.3379v-3.1494c0-.1875,.042-.3232,.126-.4072s.2197-.126,.4072-.126Zm.3369,.6885v2.915h.6592c.1445,0,.2578-.0039,.3398-.0117s.167-.0273,.2549-.0586,.1641-.0752,.2285-.1318c.291-.2461,.4365-.6699,.4365-1.2715,0-.4238-.064-.7412-.1919-.9521s-.2856-.3457-.4731-.4028c-.1875-.0576-.4141-.0864-.6797-.0864h-.5742Z"/>
    <path d="M10.8778,13.3357h-1.96v1.0547h1.8047c.1328,0,.2319,.0293,.2974,.0889s.0981,.1387,.0981,.2363-.0322,.1768-.0967,.2383-.1641,.0928-.2988,.0928h-1.8047v1.2217h2.0273c.1367,0,.2397,.0312,.3091,.0947s.104,.1484,.104,.2539c0,.1016-.0347,.1836-.104,.2471s-.1724,.0957-.3091,.0957h-2.3643c-.1895,0-.3257-.042-.4087-.126s-.1245-.2197-.1245-.4072v-3.2285c0-.125,.0186-.2271,.0557-.3062s.0952-.1367,.1743-.1729,.1802-.0542,.3032-.0542h2.2969c.1387,0,.2417,.0308,.3091,.0923s.1011,.1421,.1011,.2417c0,.1016-.0337,.1831-.1011,.2446s-.1704,.0923-.3091,.0923Z"/>
    <path d="M13.266,16.3122l-.6885-2.7363v2.9648c0,.1641-.0366,.2871-.1099,.3691s-.1704,.123-.2915,.123c-.1172,0-.2129-.041-.2871-.1221s-.1113-.2041-.1113-.3701v-3.3984c0-.1875,.0488-.314,.1465-.3794s.2295-.0981,.3955-.0981h.2695c.1621,0,.2798,.0146,.353,.0439s.1274,.082,.1626,.1582,.0752,.2002,.1201,.3721l.624,2.3525,.624-2.3525c.0449-.1719,.085-.2959,.1201-.3721s.0894-.1289,.1626-.1582,.1909-.0439,.353-.0439h.2695c.166,0,.2979,.0327,.3955,.0981s.1465,.1919,.1465,.3794v3.3984c0,.1641-.0366,.2871-.1099,.3691s-.1714,.123-.2944,.123c-.1152,0-.21-.041-.2842-.123s-.1113-.2051-.1113-.3691v-2.9648l-.6885,2.7363c-.0449,.1777-.0815,.3076-.1099,.3906s-.0806,.1592-.1567,.2275-.1816,.1025-.3164,.1025c-.1016,0-.1875-.0225-.2578-.0664s-.125-.0996-.1641-.168-.0698-.1445-.0923-.2275-.0454-.1689-.0688-.2588Z"/>
    <path d="M18.4691,12.5915c.4453,0,.8276,.0903,1.147,.271s.561,.4375,.7251,.77c.1641,.333,.2461,.7246,.2461,1.1738,0,.332-.0449,.6338-.1348,.9053s-.2246,.5068-.4043,.7061-.4004,.3516-.6621,.457-.5615,.1582-.8994,.1582c-.3359,0-.6367-.0547-.9023-.1631s-.4873-.2607-.665-.458-.312-.4346-.4028-.7119-.1362-.5771-.1362-.8994c0-.3301,.0474-.6328,.1421-.9082s.2319-.5098,.4116-.7031,.3984-.3413,.6562-.4438,.5508-.1538,.8789-.1538Zm1.2363,2.209c0-.3145-.0508-.5869-.1523-.8174s-.2466-.4053-.4351-.5229c-.1885-.1182-.4048-.1772-.6489-.1772-.1738,0-.3345,.0327-.4819,.0981s-.2744,.1606-.3809,.2856-.1904,.2842-.252,.4785-.0923,.4131-.0923,.6553c0,.2441,.0308,.4648,.0923,.6621s.1484,.3604,.2607,.4902,.2412,.2275,.3867,.292,.3052,.0967,.479,.0967c.2227,0,.4272-.0557,.6138-.167s.335-.2832,.4453-.5156,.1655-.5186,.1655-.8584Z"/>
  </g>
  <path d="M12,2.1614c5.425,0,9.8386,4.4136,9.8386,9.8386s-4.4136,9.8386-9.8386,9.8386S2.1614,17.425,2.1614,12,6.575,2.1614,12,2.1614m0-1.5C5.7379,.6614,.6614,5.7379,.6614,12s5.0765,11.3386,11.3386,11.3386,11.3386-5.0765,11.3386-11.3386S18.2621,.6614,12,.6614h0Z"/>
</svg>