<?xml version="1.0" encoding="UTF-8"?><svg width="48px" height="48px" stroke-width="1.5" viewBox="0 0 24 24" fill="none" xmlns="http://www.w3.org/2000/svg" color="#000000">
  <g>
    <path class="cls-1" d="M12,20.0164V5.9877c0-1.1068,.8972-2.0041,2.0041-2.0041h7.4151c.3321,0,.6012,.2692,.6012,.6012v13.1411" stroke="#000000" stroke-width="1.5" stroke-linecap="round" stroke-linejoin="round"/>
    <path class="cls-1" d="M12,20.0164V5.9877c0-1.1068-.8972-2.0041-2.0041-2.0041H2.5808c-.332,0-.6012,.2692-.6012,.6012v13.1411" stroke="#000000" stroke-width="1.5" stroke-linecap="round" stroke-linejoin="round"/>
    <path class="cls-1" d="M14.0041,18.0123h8.0164" stroke="#000000" stroke-width="1.5" stroke-linecap="round" stroke-linejoin="round"/>
    <path class="cls-1" d="M9.9959,18.0123H1.9795" stroke="#000000" stroke-width="1.5" stroke-linecap="round" stroke-linejoin="round"/>
    <path class="cls-2" d="M12,20.0164c0-1.1069,.8972-2.0041,2.0041-2.0041" stroke="#000000" stroke-width="1.5" stroke-linecap="round" stroke-linejoin="round"/>
    <path class="cls-2" d="M12,20.0164c0-1.1069-.8972-2.0041-2.0041-2.0041" stroke="#000000" stroke-width="1.5" stroke-linecap="round" stroke-linejoin="round"/>
  </g>
  <path class="cls-1" d="M3.9836,6.9898h6.0123" stroke="#000000" stroke-width="1.5" stroke-linecap="round" stroke-linejoin="round"/>
  <path class="cls-1" d="M3.9836,9.9319h6.0123" stroke="#000000" stroke-width="1.5" stroke-linecap="round" stroke-linejoin="round"/>
  <path class="cls-1" d="M3.9836,12.874h6.0123" stroke="#000000" stroke-width="1.5" stroke-linecap="round" stroke-linejoin="round"/>
</svg>