<?xml version="1.0" encoding="UTF-8"?><svg width="48px" height="48px" stroke-width="1.5" viewBox="0 0 24 24" xmlns="http://www.w3.org/2000/svg" color="#000000">
  <g>
    <path d="M4.834,10.0365h1.0367c.2697,0,.5009,.025,.6938,.075s.3679,.1438,.525,.2813c.409,.35,.6134,.8822,.6134,1.5965,0,.2357-.0205,.4509-.0616,.6456s-.1045,.3697-.1902,.5259-.1955,.2964-.3295,.4197c-.1054,.0946-.2205,.1705-.3456,.2277s-.2594,.0973-.4031,.1205-.3058,.0348-.4862,.0348h-1.0367c-.1447,0-.2536-.0223-.3268-.0661s-.121-.1054-.1433-.1848-.0335-.1822-.0335-.3089v-2.8796c0-.1714,.0384-.2956,.1152-.3723s.2009-.1152,.3723-.1152Zm.3081,.6295v2.6653h.6027c.1322,0,.2357-.0036,.3107-.0107s.1527-.025,.233-.0536,.15-.0688,.2089-.1205c.2661-.225,.3991-.6125,.3991-1.1626,0-.3875-.0585-.6777-.1755-.8706s-.2612-.3161-.4326-.3683c-.1714-.0527-.3786-.079-.6215-.079h-.525Z"/>
    <path d="M10.7758,10.6499h-1.7921v.9643h1.6501c.1214,0,.2121,.0268,.2719,.0813s.0897,.1268,.0897,.2161-.0295,.1616-.0884,.2179-.15,.0848-.2732,.0848h-1.6501v1.117h1.8537c.125,0,.2192,.0286,.2826,.0866s.0951,.1357,.0951,.2322c0,.0929-.0317,.1679-.0951,.2259s-.1576,.0875-.2826,.0875h-2.1617c-.1732,0-.2978-.0384-.3737-.1152s-.1138-.2009-.1138-.3723v-2.9519c0-.1143,.017-.2076,.0509-.2799s.0871-.125,.1594-.158,.1647-.0496,.2772-.0496h2.1001c.1268,0,.221,.0281,.2826,.0844s.0924,.1299,.0924,.221c0,.0929-.0308,.1674-.0924,.2237s-.1558,.0844-.2826,.0844Z"/>
    <path d="M12.9594,13.3715l-.6295-2.5019v2.7109c0,.15-.0335,.2625-.1005,.3375s-.1558,.1125-.2665,.1125c-.1071,0-.1947-.0375-.2625-.1116s-.1018-.1866-.1018-.3384v-3.1073c0-.1714,.0446-.2871,.1339-.3469s.2098-.0897,.3616-.0897h.2464c.1482,0,.2558,.0134,.3228,.0402s.1165,.075,.1487,.1447,.0688,.183,.1098,.3402l.5706,2.151,.5706-2.151c.0411-.1572,.0777-.2706,.1098-.3402s.0817-.1179,.1487-.1447,.1746-.0402,.3228-.0402h.2464c.1518,0,.2723,.0299,.3616,.0897s.1339,.1755,.1339,.3469v3.1073c0,.15-.0335,.2625-.1005,.3375s-.1567,.1125-.2692,.1125c-.1054,0-.192-.0375-.2598-.1125s-.1018-.1875-.1018-.3375v-2.7109l-.6295,2.5019c-.0411,.1625-.0746,.2813-.1005,.3572s-.0737,.1455-.1433,.208-.1661,.0938-.2893,.0938c-.0929,0-.1714-.0205-.2357-.0607s-.1143-.0911-.15-.1536-.0638-.1322-.0844-.208-.0415-.1545-.0629-.2366Z"/>
    <path d="M17.7168,9.9695c.4072,0,.7567,.0826,1.0487,.2478s.513,.4,.663,.7041c.15,.3045,.225,.6625,.225,1.0733,0,.3036-.0411,.5795-.1232,.8277s-.2054,.4634-.3697,.6456-.3661,.3214-.6054,.4179-.5134,.1447-.8224,.1447c-.3072,0-.5822-.05-.825-.1491s-.4456-.2384-.6081-.4188-.2853-.3973-.3683-.6509-.1246-.5277-.1246-.8224c0-.3018,.0433-.5786,.1299-.8304s.2121-.4661,.3764-.6429,.3643-.3121,.6-.4058,.5036-.1406,.8036-.1406Zm1.1304,2.0198c0-.2875-.0464-.5366-.1393-.7474s-.2255-.3706-.3978-.4782c-.1723-.108-.3701-.1621-.5933-.1621-.1589,0-.3058,.0299-.4406,.0897s-.2509,.1469-.3482,.2612-.1741,.2598-.2304,.4375-.0844,.3777-.0844,.5991c0,.2232,.0281,.425,.0844,.6054s.1357,.3295,.2384,.4482,.2205,.208,.3536,.267,.279,.0884,.438,.0884c.2036,0,.3906-.0509,.5612-.1527s.3063-.2589,.4072-.4715,.1513-.4741,.1513-.7849Z"/>
  </g>
  <path d="M12,3.4795c4.6982,0,8.5205,3.8223,8.5205,8.5205s-3.8223,8.5205-8.5205,8.5205S3.4795,16.6982,3.4795,12,7.3018,3.4795,12,3.4795m0-1.5C6.4658,1.9795,1.9795,6.4659,1.9795,12s4.4863,10.0205,10.0205,10.0205,10.0205-4.4863,10.0205-10.0205S17.5341,1.9795,12,1.9795h0Z"/>
</svg>