<?xml version="1.0" encoding="utf-8"?>
<!-- Generator: Adobe Illustrator 26.3.1, SVG Export Plug-In . SVG Version: 6.00 Build 0)  -->
<!DOCTYPE svg PUBLIC "-//W3C//DTD SVG 1.1//EN" "http://www.w3.org/Graphics/SVG/1.1/DTD/svg11.dtd" [
	<!ENTITY ns_extend "http://ns.adobe.com/Extensibility/1.0/">
	<!ENTITY ns_ai "http://ns.adobe.com/AdobeIllustrator/10.0/">
	<!ENTITY ns_graphs "http://ns.adobe.com/Graphs/1.0/">
	<!ENTITY ns_vars "http://ns.adobe.com/Variables/1.0/">
	<!ENTITY ns_imrep "http://ns.adobe.com/ImageReplacement/1.0/">
	<!ENTITY ns_sfw "http://ns.adobe.com/SaveForWeb/1.0/">
	<!ENTITY ns_custom "http://ns.adobe.com/GenericCustomNamespace/1.0/">
	<!ENTITY ns_adobe_xpath "http://ns.adobe.com/XPath/1.0/">
]>
<svg version="1.1" id="Ebene_1" xmlns:x="&ns_extend;" xmlns:i="&ns_ai;" xmlns:graph="&ns_graphs;"
	 xmlns="http://www.w3.org/2000/svg" xmlns:xlink="http://www.w3.org/1999/xlink" x="0px" y="0px" viewBox="0 0 24 24"
	 style="enable-background:new 0 0 24 24;" xml:space="preserve">
<style type="text/css">
	.st0{fill:#5EC189;}
	.st1{fill:none;stroke:#000000;stroke-width:1.5;stroke-linejoin:round;}
	.st2{fill:none;stroke:#000000;stroke-width:1.5;stroke-linecap:round;stroke-linejoin:round;}
</style>
<metadata>
	<sfw  xmlns="&ns_sfw;">
		<slices></slices>
		<sliceSourceBounds  bottomLeftOrigin="true" height="20.5" width="19.5" x="2.2" y="2.2"></sliceSourceBounds>
	</sfw>
</metadata>
<polygon class="st0" points="21,20.3 19,21 5,21 3.4,20.2 4,16.9 5.5,15 18.5,15 19.4,16.2 21,18 "/>
<path class="st1" d="M18.5,15h-13"/>
<path class="st2" d="M16,4H8"/>
<path class="st2" d="M9,4.5v5.8c0,0.5-0.2,0.9-0.5,1.3l-5,5.9C3.2,17.8,3,18.3,3,18.7V19c0,1.1,0.9,2,2,2h14c1.1,0,2-0.9,2-2v-0.3
	c0-0.5-0.2-0.9-0.5-1.3l-5-5.9c-0.3-0.4-0.5-0.8-0.5-1.3V4.5"/>
<path class="st2" d="M12,9L12,9"/>
<path class="st2" d="M11,2L11,2"/>
</svg>
