<?xml version="1.0" encoding="UTF-8" standalone="no"?>
<!-- Uploaded to: SVG Repo, www.svgrepo.com, Transformed by: SVG Repo Mixer Tools -->

<svg
   version="1.1"
   id="Icons"
   viewBox="0 0 0.8 0.83259247"
   xml:space="preserve"
   width="20"
   height="20.814812"
   fill="#ffffff"
   sodipodi:docname="paper-plane-toy-svgrepo-com.svg"
   xmlns:inkscape="http://www.inkscape.org/namespaces/inkscape"
   xmlns:sodipodi="http://sodipodi.sourceforge.net/DTD/sodipodi-0.dtd"
   xmlns="http://www.w3.org/2000/svg"
   xmlns:svg="http://www.w3.org/2000/svg"><defs
   id="defs1" /><sodipodi:namedview
   id="namedview1"
   pagecolor="#ffffff"
   bordercolor="#000000"
   borderopacity="0.25"
   inkscape:showpageshadow="2"
   inkscape:pageopacity="0.0"
   inkscape:pagecheckerboard="0"
   inkscape:deskcolor="#d1d1d1" />





<g
   id="SVGRepo_iconCarrier"
   transform="matrix(0.02962963,0,0,0.02962963,-0.0592593,-0.05629628)"> <style
   type="text/css"
   id="style1"> .st0{fill:none;stroke:#000000;stroke-width:2;stroke-linecap:round;stroke-linejoin:round;stroke-miterlimit:10;} </style> <path
   d="m 29,2.9 c 0,-0.1 0,-0.2 0,-0.3 0,0 0,-0.1 0,-0.1 0,-0.1 -0.1,-0.2 -0.2,-0.2 0,0 0,0 0,-0.1 0,0 0,0 0,0 0,0 0,0 0,0 C 28.7,2.1 28.6,2.1 28.5,2 c 0,0 -0.1,0 -0.1,0 -0.1,0 -0.2,0 -0.3,-0.1 0,0 -0.1,0 -0.1,0 -0.1,0 -0.2,0 -0.3,0 0,0 -0.1,0 -0.1,0 0,0 0,0 0,0 l -25,12 c -0.3,0.4 -0.6,0.7 -0.6,1 0,0.3 0.1,0.7 0.4,0.9 l 5.2,3.9 6.8,-5.5 c 0.4,-0.3 1.1,-0.3 1.4,0.2 0.3,0.4 0.3,1.1 -0.2,1.4 L 9,21.1 V 29 c 0,0.4 0.3,0.8 0.7,0.9 0.1,0.1 0.2,0.1 0.3,0.1 0.3,0 0.6,-0.1 0.8,-0.4 l 3.7,-4.8 3.9,2.9 c 0.2,0.1 0.4,0.2 0.6,0.2 0.1,0 0.2,0 0.3,0 0.3,-0.1 0.5,-0.3 0.7,-0.6 l 9,-24 c 0,-0.1 0,-0.2 0,-0.4 0,0.1 0,0.1 0,0 z"
   id="path1" /> </g>

</svg>
